/* XPM */
static char *_7dbf4fa29234a71b9daa7138b0856520OliOfKe2zZc2mpK[] = {
/* columns rows colors chars-per-pixel */
"100 100 83 1 ",
"  c #585858",
". c gray35",
"X c #5A5A5A",
"o c #5B5B5B",
"O c gray36",
"+ c #5D5D5D",
"@ c gray37",
"# c #5F5F5F",
"$ c #606060",
"% c gray38",
"& c #626262",
"* c gray39",
"= c #646464",
"- c #656565",
"; c gray40",
": c #676767",
"> c #686868",
", c DimGray",
"< c #6A6A6A",
"1 c gray42",
"2 c #6C6C6C",
"3 c #6D6D6D",
"4 c gray43",
"5 c #6F6F6F",
"6 c gray44",
"7 c #717171",
"8 c #727272",
"9 c gray45",
"0 c #747474",
"q c gray46",
"w c #767676",
"e c #777777",
"r c gray47",
"t c #797979",
"y c gray48",
"u c #7B7B7B",
"i c #7C7C7C",
"p c gray49",
"a c #7E7E7E",
"s c gray50",
"d c #808080",
"f c #818181",
"g c gray51",
"h c #838383",
"j c #848484",
"k c gray52",
"l c #868686",
"z c gray53",
"x c #888888",
"c c #898989",
"v c gray54",
"b c #8B8B8B",
"n c gray55",
"m c #8D8D8D",
"M c #8E8E8E",
"N c gray56",
"B c #909090",
"V c gray57",
"C c #929292",
"Z c #939393",
"A c gray58",
"S c #959595",
"D c gray59",
"F c #979797",
"G c #989898",
"H c gray60",
"J c #9A9A9A",
"K c #9B9B9B",
"L c gray61",
"P c #9D9D9D",
"I c gray62",
"U c #9F9F9F",
"Y c #A0A0A0",
"T c gray63",
"R c #A2A2A2",
"E c gray64",
"W c #A4A4A4",
"Q c #A5A5A5",
"! c gray65",
"~ c #A7A7A7",
"^ c gray66",
"/ c #A9A9A9",
"( c #ACACAC",
/* pixels */
"(^~~~EIIIIIE~^^~^~~~~~EEEKAKAKIE~EE~EEIIIIIKKKKIIIKKKIIIIIIIIIIIIKKIEEEEEEIAAAAAAAAAAAAAAAAAq%%=%%==",
"~EEEIKKKKKKKIEEEIIIKKKKKKCCCCAKIIIIIIKKKKAAAAAAAAACCAACCCCCCCCCCACAAKKKKAKANcNNNNCNNNCCCNCCC8%%%%%%=",
"~EIIIKAKKAAKIIIIEIIIIIIIKCNCNCKIIKKIKAAAAAACCCCCAAAAAAACAAAAAAAAAAAKIIKKKIKCNNNNNNNNNNNNNNNN8OO%%O%=",
"~EIEIKKKKAKKIEEEIIKKKKKKKCNCCCKIIIIIKKAKKKAAAAAACCCCCCCCCCCCCCCCCCCAKKKKKKACNNNcCCCCCCCNNCNN8%OO%O%=",
"~EIIKACAAAAAKKKKIIKKKIKKANcccNAKKKKKKAAAACCCCCCCACNNNNCCAAAACCCCCCCCAAAAAACNNNNcNNcccccccNcc8%%O%%%=",
"~IKKANcNNNcNNNNNNccccccccfiiifcNNNNNNcccNccccccccfiyyyyifffffffffffiiiiiiiiiiffffzzfffffifff1%%%%%%=",
"~IKIKNzcczzzzzzzcczcccccfyqyqyfzczzcczzzcccccccccfyq88qyfiffiiiiffiyyyyyyyiiffffffffiiiiyyyi1O%%%%%=",
"EKKIKNzcccccccccccccccccfyyyyizccccccccczzcccccccfyq88qyiiffiiiiifiyqyyyyyyiiiiiifiiiiiiyiyi1%%%%%%=",
"EIIKKccccccccccccccccccczyqyqyzcczzcczzccccccccccfq8q8qyiffffiiifffiyyyyyyyifiiiiiiiiiiiyiii1%%%%%%=",
"EKIKKccczzzzzzzzzzzzzzzzzyyyyizzczzzzzzzcccccccccfq888qiiiffffiffffiyqyyyyyifiifiiiiiiiiyiyi1%%%%%%=",
"EIIIKNccccccccccccccccccfyyyyizccccccccccccccccccfy888qiiiiiiiiiffiiyqqyyyyiiiifffffffiiyiyi1%%%%%%=",
"EKIKKcccccccccccccccccccfiyyyizzcccccccccccccccccfyqq8qiiiifiiiiffiiyyyyyyyiiifffiiiiiiiyiyi1%%%%%%=",
"IAAACzffffffffffffffffffiffiffffffffffzzzzzzzzzzzfiyyqyfffffffffiiiiiiiiiiiiffffyyyyyyqq8q8q=OOOOO%%",
"ACCNNiyyyyyyyyyyyyyyyyyyizczcziyyyyyyiffffffffffffiiiiizczzzzzzfiiiiiiiiiiiiffffqq8qq8885515%OOOOOO%",
"KCCNNiyyyyyyyyyyyyyyyyyyicccczyqyyyyyiiiiiiiffiiififfifccccccczfifiifffffiiiffiiq888888815=5%OOOOOOO",
"KCCNNiyyyyyyyyyyyyyyyyyyyzczcziyyyyyyiiiiiiiffiiifiiiiizzzzcczfiifiifffffiiiiiiiq888888855=5%OOOOOO%",
"ANCCNyyyyyyyyyyyqyyyyyqyifzccziyyyyyyiifiiiiiiiifiiifffzzzcczzffiiiifiifffiiiiiiq8888q815155%OOOOOO%",
"KCAANyqqqqqqyiiiifffzzfzfzffffiiiiiiiyyiiiiiiiiiiyyyyiiiiiiiiiyyiyiiiiffffiiiiiizfzzfzfy5555=OOOOOO%",
"IAKACy8888qqyiffizccNccczzfiiififiiiiyyyyyyyyyyyyyyyyyyyyyyyyyyyyyyiiiffiiiiffffzzcczcfy5585=O%%OO%%",
"IAKACy8888qqyifiizcccczzzffiiffifiifiyyyyyyyyyyyyyyyyyyyyyyyyyyyyyyiiiffiiiiffffzzccccfq5585=O%%OO%=",
"IAKACy888qqqyifiicczcczzzzffffiiiiifiiyyyyyyyyyyyyyyyyyyyyyyyyyyyyyiiiiiiiiiiiffczcccczy5585=OOOOO%=",
"IAKACy88888qyifiicczcccczfiiiiiiiiifiyyyyyyyyyyyyyyyyyyyyyyyyyyyyyyifiiiffffiiffczzzzczy5555=OO%OO%=",
"IAKACy88888qyffiicczzccczfiiiiifffifiyyyyyyyyyyyyyyyyyyyyyyyyyyyyyyiffiiffffiiiiczcccczy5555=OO%OO%=",
"IAKACy88q88qyifiicczzcczzfffffiiifffiiyyyyyyyyyyyyyyyyyyyyyyyyyyyyyiffiiffffiiiiczzcccfq5555=OO%OO%=",
"IAKACiqqqqqqyiiiifzzzzzzffiiiiiiiiiiqfiyiiiiiiiiiiiiiiiiiiiiiiiiiiiiiiiiiiiffiiizzcczczy5588=OO%%%%=",
"IAAACiyqyyqyyyyyqyyyyyyyyyyyyyyyqqyyyzzzzzzzzzzzzzzzzzzzzzzzzzzzzzziqqq8qqqiiiffccccccziq8q8=OOOOOO%",
"KCACCiyyyyyyyyqqqqyyqqqqyqqqyyqqyqqyqzccccccccccccccccccccccccccccciq88888qyiiiizzcczczyq8qq=OOOOOO%",
"IAACCiyyyyyyyyqyyyyyyyyyyyyyyyyyiyyyqzzccccccccczzccczzzczzzzzcczcci88qq88yifiiiczcczczi88qq=OOOOOO%",
"IAACCiyyyyyyyyyyyyyyyyyyyyyyyyyyyyyyqzzccccccccccccccccccccccccczcciq8qq88qiffffccccccziqqqq=OOOOOOO",
"ICACCiyyyyyyyyyyyyyyyyyyyyyyyyyqqqqyqzzzzzzzzzzzzzzzzzzzzzzzzzzzzzfiqqqqqqyyiiiizfzzfzfy8888=OOOOOO%",
"KCACCiyyyyyyyyyyyyyyyyyyyiiiiyyqqqqq8fffffffffffffiiiiiiiiiiiiyyyyyyiyyiiyyyyyyyiiiiiiy85115=OO%%%%=",
"KCACCiyyyyyyyyyyyyyyyyyyyiifiiqq88888iifiiiiiiiiiiyyyyyyyyyyyqqqq88yiiiffiyyyyyyyyyyyyy55111=%%%%%%=",
"KCACCiyyyyyyyyyyyyyyyyyyyiiiiiq88q88qififffiiifffiyyyyyyyyyyyyq8q8qyiiiiffiyyyyqyyyqyyq85111%%%%%%%=",
"KCACCiyyyyyyyyyyyyyyyyyyyiffiiq88qq8qififfiiiifffiyyyyyyyyyyyyq8q88yiffffiiyyyyyyyyyyyq81111=O%%%%%=",
"KCCCNiyyyyyyyyyyyyyyyyyyyiffiiq88888qifiiiiiiiiiiiyyyyyyyyyyyyq8888yiiiiiiiyyqyyyyyyyyq81111%%%%%%%=",
"KCCCNiyyyyqyyyyqyyqqyyyyiifffiq88q88qififfffffffiiyyyyyyyyyyyyq8q88yifiiffiyyqqyyyyyyyq81111%%%%%%%=",
"KCACCiyyyyyyyyyyyqqqyyyyiiifiyqqqqq8qyiiiiiiiiiiiiyyyyyyyyqyyqq8qqqyiffffiiiyyyyqyyyyyq81155=%%%%%%=",
"KCCNNyqqqqqqyyyyyqqqqqqqyqqyyq8888888qqqqqqqqqqqyyqqqqqqqqqqqq888888qqq8888qq8qqqqqqqqq85555=%%%%%%=",
"ANNccq88888qqqyyqqqqqqqq8858855555555885555555558888qqqqqqqqqq8888511======15555qqqqqqq88888=%%%%%%=",
"ANNNcq88888qqyyyqqq88qqq855555555555555555555555588qqqqqq88qqq858881=======1515588888qq888q81%%%%%%=",
"CNNNzy8qq888qyyqqqqq88qq88555555555555555555555558qqqqqq888qqq858851=%%=%%=15115qqqqqqq888q81%%%%%%=",
"ANNNzq558888qyyyqqqqqqqq855555555555555555555555588qq88qqqqqq88588851=====155555qqqqqq8888851%OO%%%=",
"Nczczyqq85588qqqq888888885555551115555551155555555888888888888855511=======111118888888888851=%=%O%=",
"O......O.....OOOOO......O..............................O....OOOO%%%%%%%%%%%%%%%%OOOOOOOOOOOOO.OOOOO%",
"%OOOOOO%OOOOOOOOOOOOOOOO%OOOOOOOOOOOOOOOOOOOOOOOOOO...OOOOOOOO%%%%%%%%%%%%%%OOOO%%%%%%%%%%OOOO%OO.O%",
"%%OOOOOOOOOOOOOOOOOOOOOOOOOOOOOOOOOOOOOOOOOOOOOOOOO..OOOOOOOOO%%%%%%%%%%%%%%%%%%%%%%%%%%%%OOOOOOOOOO",
"%%OOOOO.OOOOOOOOOOOOOOOOOOOOOOOOOOOOOOOOOOOOOOOOOO..OOOOOOOOOOO%%%%%%%%%%%%OO%%%%%%%%%OOO%%OOOOOOOOO",
"%%O.OOOOOOOOOOOOOOOOOOOOOOOOOOOOOOOOOOOOOOOOOOOOOO...OOOOOOOOO%%%%%%%%%%%%%%O%%O%%%%%%OOO%%OOOOOOOOO",
"%OOOOOO.OOOOOOOO.OOOO..OOOO.OOO..O...OOOOO.OOOOOO.O..O..OOOOOOO%O%%%%%%%%%O%%%O%OO%OOOOOO%%OOOOOOOOO",
"q55555555555555555555588555558858888555555=%%OO.O%888q8888888888888855555555855588q88q8855555585888q",
"ANNNNNCNNNNNNNNNNNNNNNNNCCCCCAACCCAAACNNcc8%%OO%O5NAAACCCCAAACCCCACNczzzzzcNCCCCCCCCCACNccccNCACCCCA",
"KACCAAAAAAAAAAAAKKAAAAAAKKIKKKIKKKKIKKAAAKyO%%O%OqK~~~EEIIIIIIKKKIKANccNNNCAKKAAIIKKIIKANNNCAIIKIIIE",
"KACAAAKAAAAAAKKKAAAKKKAAKIIIIIIKIKIIIKAACAqO%%OOOqA~~~IIIIIIIIIIKIKACNCCNNCAKKAAIIKIIIKACCCCAIIKIIIE",
"KACAAAKAKKKKAAAAAAAAKKAAKIIIKKIKIKKIIKAAKAy%OOOO%qAE~~EEIIKIIIIKKIKANNNNNNCAKKKKKIKKIIKACNNCAIIIKKIE",
"KACAAAAAAKAAAAKKKKAAKKKAAKIKKKKKIKKIKACCANq%OO%%OqAEE~EEIIIIIIKKKIKACNNNNNCCAKKKIIIIIIKKNNNCAIIKIIIE",
"ziiiiifiiiifffzzfiyqyyyyifzzzzzfzfzzziqqyq1%OOO..8CKKKACNNNNNNczfzffffffffiffiiiiffiiiiiiiiiifiyiiif",
"iqqyqqyyqqyyiiffiq888888qififfffiiiif88855=OOOOO.5cACAANzcccczfiffffffiiifiyyyyyqyyyyyyyyyyyyyyyyyyi",
"iyyyyyyyyyyyiiiiiq888888qffiiiifiiiif88855=OOOOO.5cACAANccccczfififfffiifiiyyyyyyyyyyyyyyyyyyyyyyyyi",
"iqyyqyyyyyyyiiiiiq8888qqqffiiiifiiiif88585=OOOOOO5cACAANccccczffiiiifiiiiiiyyyyyyyyyyyyyyyyyyyyyyyyi",
"iyyyyyyyyyyyiffiiq8888qqqifiiiffiiiif88885=OOOOOO5cACAAczzccczffiiiiiiiiiiiyyyyyyyyyyyyyyyyyyyyyyyyi",
"fyyyyyyyyyyyiiiiiq8q88q8qifiiiiiffiif85555=OOOOO.5cACAAczzccczfifiiiiiiiiiiyyyyyyyyyyyyyyyyyyyyyyyyi",
"iyyyqyyyqyyyiiffiq8q8888qifiiiiiiiiif85555=OOOOOO5cACAAcccccczfiffiiiiiiifiyyyyyyyyyyyyqyyyyyyyyyyyi",
"fiiiiiiiiiiiiiiiiq8q88q8qiiyiiiffffff888881%OOOOO8cAAAAczzzzzzffffffiiiifffiiiiiiiiiiiiyyyyyyyyyyyyi",
"Nccccccccccziyyyy88q88888yyyyifzcczzcyyqqq1%%%O%%8NKAAAzfiiiffiifffffiiffffiiiiiczzzczffyyyyyyyyyyyi",
"Ccccccczzccziyqyyq88q888qqyyyizccccccyqqqq1%%%O%%8NAAAAziifiifiiiifffiiiiiiiiifizcczccziyyyyyyyyyyyi",
"Nczczzczzccziyyyyqq88qq8qyyyyifccczzcyqqqq1%%%O%%8NAAAAfiifiifiiiiffffiiiffiififzcczzcziyyyyyyyyyyyi",
"Nczczcczcccziyyyyqq888qqqqyyyizccccccyqqqq1%%%O%%8NAAAAziifiiziiiiffiiiiiiifffffccczcczfyyyyyyyyyyyi",
"Nzzzzzzzzzzziyyiyyyyyyyyiiiiiffzzzzzzqqqq81%%%O%%8CKKKKzfffffziyyyyyyyyyyyiiffffzzzzzzzfyiiyyyyyyyyi",
"zfiffffifffffiiifzzzzzzzccczzffffffff88585=O%%O%O5CKIKKczzzzzzyqqqqqqqqqqqqifffffffffffiiiiiyyyyyyyi",
"ziiiiiiiiifffffffzccccccccccczfiiiiif55555=OO%OOO5CIIIINczccczy88888888888qyiiffiiiiiiiifffiyyqyyyyi",
"zfififfiiiiiffffizczzzczzzzcczfiifiif88555=OO%OOO5CIIIINczccczy8qqqqqqqq88qifiiifiiiffffiffiyyyyyyyi",
"zfifiififfiiiififccczcccccccczfiifiif85555=O%%O%O8CIIKINczczczy888888888q8qifiiifiiififfiifiyyyyyyyi",
"ziifiifiiiiiiiiiizczcczczzccczfiifiif85585=OO%O%%8CIIKIcczzzczi88888888888qyiiifffffiiiiiifiiyyyyyyi",
"ziifiifiiifiiiiiizcccczzzzccczfiifiif85555=O%%O%O8CIIIINccccNzy58888888888qyifffifffiiiiifffiyyyyyyi",
"fiiiiiiiiiiiiiiiizcccczcccccczfiiiiif55555=OO%O%O8CKIIIczzcccfy8qqqqqqqqqqqyiiiiiiiiiiiiiffiiyyyyyyi",
"fyyiyyyyiiiiyyyyizcccccccccccziyyyyyi55115=OOOOOO5NKKAAziiiiiiiyyyyyyyyyyyyyyyyyyyiiyyyyyyiyyyyyyyyi",
"iyyyyyyyyyyyyyyyyzczcccccccccziyyyyyy11111%OOOOOO5NAACCiyyyyyyiiiiifffiifiiyyyyyyyyyyyyyqyyyyyyyyyyi",
"iyyyyyyyyyyyyyyyyfcccccccczccziyyyyyy11111%OOO.OO5cAACCiyyyyyyiiffffffffffiyyqyyyyyyyyyyyyyyyyyyyyyi",
"iyyyyyyyyyyyyyyyyzcccczcczzccziyyyyyi1111=%OOOOOO5cAAACiyyyyyyyiiiiifffiiiiyyyyyyyyyyyyyyyyyyyyyyyyi",
"iyyyyyyyyyyyyyyyyzccczzcczzccziyyyyyy1111=%OOOOOO5cAAACiyyqyyyifiiiiffiiiiiyyyyyyyyyyyyyyqyyyyyyyyyi",
"zfifiiiiiiiiyyyyyyyyyyyyqyyyyyqqq8q8q11111=OO%O%%8cACAAccccccccccccziiffiifzccccyyyyyyifczczy88qq8qy",
"ziifiiiiiiiiyyyyyyyyyyyyyyqqqqq888q8q11111%O%%%%%8cACACccccccccccccfiifiiifzccccyyyyyyifcccci88qq8qy",
"ziffiifiiffiyyyyyyyyyyyyyyyyyqq888q8q11111=O%%%%%8cACACczzzzzzzcccczfiiifffzccccqyyyyyifczczy88888qq",
"ziffiifiiffiyyyyyyyyyyyyyyyyyyq888q8q11111=%%%%%%8cACAAccccccccczccfiiffiifzccccqyyyyyifczcciqqq888q",
"ziiiiifiiffiyyyyyyyqqyyyyyyyyqq888q8q11111=O%%%%%5zCCACcccczzzzczczfiiiiiifzccccqqyyyyifzzczi88888qq",
"zfffifffffffiyyyyyyyyyyyyyyyyyqq88q8q11111%O%%%%%8cACAAcccczzzzzccczfifffffcccccyyyyyyifczczy888q8qq",
"fiiiiiiiiifiyyyyyyyyyyyyyyyyyqqq8888q11511=%%%%%%8cACACccccccccczczfiiiiiifzzzzzyyyyyyifcccciqqq888q",
"iqqyqqyqqyyqq888qqqqqqqqqq88qq88q885q15855=%%%O%%5zCNCNziiiiiifffffiyyyyyyiiffiiqqqqqqqyiiiiq5588558",
"51111111111111111155555551111588qqqqqqyyyq5%%%%%%5zNzNc81511118yqqq8888888855555555555111111==111111",
"51111111111111111155555551111188qqqqqqqyyq5%%%%%%5zNzNc85151118yqqq8888888855555555555511111==111115",
"51111111111111111155555555111588qqqqqqyyyy5%%%%%%5fNzcz85555158yyyqq88888888555555555555111111111115",
"51111111111111111155555555111158qqqqqqyyqq5%%%%%=5fNcczq5155158qqqq888888885555555555555111111111115",
"1================1111111111===155555555555=%%%O%%=qyyyq51=11=1585855111111111111====11=============1",
"=%%%%%%%%%%%%%%%O%%%%%%%%%%%%%%%%%%%%%%%%%OOOOOOOO%%%%%O%%%%%%=1====%%%%%%%%%%%%OOOO%%OOOOOOOOOO%OO%",
"=%OO%%OO%OOO%OOOOOOOOOOOOOOOOOOOOOOOOOOO.OOOOOOO%OOOOOOOOOOOOOO%%%%%OO%OOOOOOOOOOO..OOOOOOOOOOOOOOOO",
"=%O%%%%O%%%%%%%OOO%OOOO%O%%%%OOOOOOOOOOOOOOOOOOOOOOOOOOOOOOOOOO%%%%%%%%%%%%%%O%%OOOOOOOOOOOOOOOOOOO%",
"%%%%%%%%%%%%%%OOOOOOOO%%%OOOOOOOOOO%OOOOOOOOOOOOOOOOOOOOOOOOOO%%%%%%%%%%%%OOOOOOOOOOOOOOOOOOOOOOOOO%",
"%%%O%%%%%%%%OOOOOOOOOO%%OOOOOOOOOO%%OOOOOOOOOOOOOOOOOOOOOOOOOO%%%%%%%%%%%OOOOOOOOOOOOOOOOOOOOOOOOOOO",
"%%%%%%%%%%%%%%%%%%%%%%%%%%%%%%%%%%%%OOOOOOOOOOOOOOOOOOOOO%OOOO%=%%%%%%%%%%%%%%%%OOOOOOOOOOOOOOOOOOO%",
"===%========%%%%==%%====%%%%========%%%%%%%%%%%%%%%%%%%%%%%%%%============%%%%%=%%%%%%%%%%%%%%%%%%%="
};
