/* XPM */
static char *_1af2a10a4cc4f21fee4a8675aefe473tVx1zhhNrHkTT0AR[] = {
/* columns rows colors chars-per-pixel */
"100 100 7 1 ",
"  c red",
". c #36FF00",
"X c #FF9800",
"o c #FFDB00",
"O c #003AFF",
"+ c #DF00FF",
"@ c #00FF94",
/* pixels */
"             XXXXXXXXXXXXXooooooooooooo.............@@@@@@@@@@@@@OOOOOOOOOOOOO+++++++++++++         ",
"            XXXXXXXXXXXXXooooooooooooo.............@@@@@@@@@@@@@OOOOOOOOOOOOO+++++++++++++          ",
"           XXXXXXXXXXXXXooooooooooooo.............@@@@@@@@@@@@@OOOOOOOOOOOOO+++++++++++++           ",
"          XXXXXXXXXXXXXooooooooooooo.............@@@@@@@@@@@@@OOOOOOOOOOOOO+++++++++++++            ",
"         XXXXXXXXXXXXXooooooooooooo.............@@@@@@@@@@@@@OOOOOOOOOOOOO+++++++++++++             ",
"        XXXXXXXXXXXXXooooooooooooo.............@@@@@@@@@@@@@OOOOOOOOOOOOO+++++++++++++             X",
"       XXXXXXXXXXXXXooooooooooooo.............@@@@@@@@@@@@@OOOOOOOOOOOOO+++++++++++++             XX",
"      XXXXXXXXXXXXXooooooooooooo.............@@@@@@@@@@@@@OOOOOOOOOOOOO+++++++++++++             XXX",
"     XXXXXXXXXXXXXooooooooooooo.............@@@@@@@@@@@@@OOOOOOOOOOOOO+++++++++++++             XXXX",
"    XXXXXXXXXXXXXooooooooooooo.............@@@@@@@@@@@@@OOOOOOOOOOOOO+++++++++++++             XXXXX",
"   XXXXXXXXXXXXXooooooooooooo.............@@@@@@@@@@@@@OOOOOOOOOOOOO+++++++++++++             XXXXXX",
"  XXXXXXXXXXXXXooooooooooooo.............@@@@@@@@@@@@@OOOOOOOOOOOOO+++++++++++++             XXXXXXX",
" XXXXXXXXXXXXXooooooooooooo.............@@@@@@@@@@@@@OOOOOOOOOOOOO+++++++++++++             XXXXXXXX",
"XXXXXXXXXXXXXooooooooooooo.............@@@@@@@@@@@@@OOOOOOOOOOOOO+++++++++++++             XXXXXXXXX",
"XXXXXXXXXXXXooooooooooooo.............@@@@@@@@@@@@@OOOOOOOOOOOOO+++++++++++++             XXXXXXXXXX",
"XXXXXXXXXXXooooooooooooo.............@@@@@@@@@@@@@OOOOOOOOOOOOO+++++++++++++             XXXXXXXXXXX",
"XXXXXXXXXXooooooooooooo.............@@@@@@@@@@@@@OOOOOOOOOOOOO+++++++++++++             XXXXXXXXXXXX",
"XXXXXXXXXooooooooooooo.............@@@@@@@@@@@@@OOOOOOOOOOOOO+++++++++++++             XXXXXXXXXXXXX",
"XXXXXXXXooooooooooooo.............@@@@@@@@@@@@@OOOOOOOOOOOOO+++++++++++++             XXXXXXXXXXXXXo",
"XXXXXXXooooooooooooo.............@@@@@@@@@@@@@OOOOOOOOOOOOO+++++++++++++             XXXXXXXXXXXXXoo",
"XXXXXXooooooooooooo.............@@@@@@@@@@@@@OOOOOOOOOOOOO+++++++++++++             XXXXXXXXXXXXXooo",
"XXXXXooooooooooooo.............@@@@@@@@@@@@@OOOOOOOOOOOOO+++++++++++++             XXXXXXXXXXXXXoooo",
"XXXXooooooooooooo.............@@@@@@@@@@@@@OOOOOOOOOOOOO+++++++++++++             XXXXXXXXXXXXXooooo",
"XXXooooooooooooo.............@@@@@@@@@@@@@OOOOOOOOOOOOO+++++++++++++             XXXXXXXXXXXXXoooooo",
"XXooooooooooooo.............@@@@@@@@@@@@@OOOOOOOOOOOOO+++++++++++++             XXXXXXXXXXXXXooooooo",
"Xooooooooooooo.............@@@@@@@@@@@@@OOOOOOOOOOOOO+++++++++++++             XXXXXXXXXXXXXoooooooo",
"ooooooooooooo.............@@@@@@@@@@@@@OOOOOOOOOOOOO+++++++++++++             XXXXXXXXXXXXXooooooooo",
"oooooooooooo.............@@@@@@@@@@@@@OOOOOOOOOOOOO+++++++++++++             XXXXXXXXXXXXXoooooooooo",
"ooooooooooo.............@@@@@@@@@@@@@OOOOOOOOOOOOO+++++++++++++             XXXXXXXXXXXXXooooooooooo",
"oooooooooo.............@@@@@@@@@@@@@OOOOOOOOOOOOO+++++++++++++             XXXXXXXXXXXXXoooooooooooo",
"ooooooooo.............@@@@@@@@@@@@@OOOOOOOOOOOOO+++++++++++++             XXXXXXXXXXXXXooooooooooooo",
"oooooooo.............@@@@@@@@@@@@@OOOOOOOOOOOOO+++++++++++++             XXXXXXXXXXXXXooooooooooooo.",
"ooooooo.............@@@@@@@@@@@@@OOOOOOOOOOOOO+++++++++++++             XXXXXXXXXXXXXooooooooooooo..",
"oooooo.............@@@@@@@@@@@@@OOOOOOOOOOOOO+++++++++++++             XXXXXXXXXXXXXooooooooooooo...",
"ooooo.............@@@@@@@@@@@@@OOOOOOOOOOOOO+++++++++++++             XXXXXXXXXXXXXooooooooooooo....",
"oooo.............@@@@@@@@@@@@@OOOOOOOOOOOOO+++++++++++++             XXXXXXXXXXXXXooooooooooooo.....",
"ooo.............@@@@@@@@@@@@@OOOOOOOOOOOOO+++++++++++++             XXXXXXXXXXXXXooooooooooooo......",
"oo.............@@@@@@@@@@@@@OOOOOOOOOOOOO+++++++++++++             XXXXXXXXXXXXXooooooooooooo.......",
"o.............@@@@@@@@@@@@@OOOOOOOOOOOOO+++++++++++++             XXXXXXXXXXXXXooooooooooooo........",
".............@@@@@@@@@@@@@OOOOOOOOOOOOO+++++++++++++             XXXXXXXXXXXXXooooooooooooo.........",
"............@@@@@@@@@@@@@OOOOOOOOOOOOO+++++++++++++             XXXXXXXXXXXXXooooooooooooo..........",
"...........@@@@@@@@@@@@@OOOOOOOOOOOOO+++++++++++++             XXXXXXXXXXXXXooooooooooooo...........",
"..........@@@@@@@@@@@@@OOOOOOOOOOOOO+++++++++++++             XXXXXXXXXXXXXooooooooooooo............",
".........@@@@@@@@@@@@@OOOOOOOOOOOOO+++++++++++++             XXXXXXXXXXXXXooooooooooooo.............",
"........@@@@@@@@@@@@@OOOOOOOOOOOOO+++++++++++++             XXXXXXXXXXXXXooooooooooooo.............@",
".......@@@@@@@@@@@@@OOOOOOOOOOOOO+++++++++++++             XXXXXXXXXXXXXooooooooooooo.............@@",
"......@@@@@@@@@@@@@OOOOOOOOOOOOO+++++++++++++             XXXXXXXXXXXXXooooooooooooo.............@@@",
".....@@@@@@@@@@@@@OOOOOOOOOOOOO+++++++++++++             XXXXXXXXXXXXXooooooooooooo.............@@@@",
"....@@@@@@@@@@@@@OOOOOOOOOOOOO+++++++++++++             XXXXXXXXXXXXXooooooooooooo.............@@@@@",
"...@@@@@@@@@@@@@OOOOOOOOOOOOO+++++++++++++             XXXXXXXXXXXXXooooooooooooo.............@@@@@@",
"..@@@@@@@@@@@@@OOOOOOOOOOOOO+++++++++++++             XXXXXXXXXXXXXooooooooooooo.............@@@@@@@",
".@@@@@@@@@@@@@OOOOOOOOOOOOO+++++++++++++             XXXXXXXXXXXXXooooooooooooo.............@@@@@@@@",
"@@@@@@@@@@@@@OOOOOOOOOOOOO+++++++++++++             XXXXXXXXXXXXXooooooooooooo.............@@@@@@@@@",
"@@@@@@@@@@@@OOOOOOOOOOOOO+++++++++++++             XXXXXXXXXXXXXooooooooooooo.............@@@@@@@@@@",
"@@@@@@@@@@@OOOOOOOOOOOOO+++++++++++++             XXXXXXXXXXXXXooooooooooooo.............@@@@@@@@@@@",
"@@@@@@@@@@OOOOOOOOOOOOO+++++++++++++             XXXXXXXXXXXXXooooooooooooo.............@@@@@@@@@@@@",
"@@@@@@@@@OOOOOOOOOOOOO+++++++++++++             XXXXXXXXXXXXXooooooooooooo.............@@@@@@@@@@@@@",
"@@@@@@@@OOOOOOOOOOOOO+++++++++++++             XXXXXXXXXXXXXooooooooooooo.............@@@@@@@@@@@@@O",
"@@@@@@@OOOOOOOOOOOOO+++++++++++++             XXXXXXXXXXXXXooooooooooooo.............@@@@@@@@@@@@@OO",
"@@@@@@OOOOOOOOOOOOO+++++++++++++             XXXXXXXXXXXXXooooooooooooo.............@@@@@@@@@@@@@OOO",
"@@@@@OOOOOOOOOOOOO+++++++++++++             XXXXXXXXXXXXXooooooooooooo.............@@@@@@@@@@@@@OOOO",
"@@@@OOOOOOOOOOOOO+++++++++++++             XXXXXXXXXXXXXooooooooooooo.............@@@@@@@@@@@@@OOOOO",
"@@@OOOOOOOOOOOOO+++++++++++++             XXXXXXXXXXXXXooooooooooooo.............@@@@@@@@@@@@@OOOOOO",
"@@OOOOOOOOOOOOO+++++++++++++             XXXXXXXXXXXXXooooooooooooo.............@@@@@@@@@@@@@OOOOOOO",
"@OOOOOOOOOOOOO+++++++++++++             XXXXXXXXXXXXXooooooooooooo.............@@@@@@@@@@@@@OOOOOOOO",
"OOOOOOOOOOOOO+++++++++++++             XXXXXXXXXXXXXooooooooooooo.............@@@@@@@@@@@@@OOOOOOOOO",
"OOOOOOOOOOOO+++++++++++++             XXXXXXXXXXXXXooooooooooooo.............@@@@@@@@@@@@@OOOOOOOOOO",
"OOOOOOOOOOO+++++++++++++             XXXXXXXXXXXXXooooooooooooo.............@@@@@@@@@@@@@OOOOOOOOOOO",
"OOOOOOOOOO+++++++++++++             XXXXXXXXXXXXXooooooooooooo.............@@@@@@@@@@@@@OOOOOOOOOOOO",
"OOOOOOOOO+++++++++++++             XXXXXXXXXXXXXooooooooooooo.............@@@@@@@@@@@@@OOOOOOOOOOOOO",
"OOOOOOOO+++++++++++++             XXXXXXXXXXXXXooooooooooooo.............@@@@@@@@@@@@@OOOOOOOOOOOOO+",
"OOOOOOO+++++++++++++             XXXXXXXXXXXXXooooooooooooo.............@@@@@@@@@@@@@OOOOOOOOOOOOO++",
"OOOOOO+++++++++++++             XXXXXXXXXXXXXooooooooooooo.............@@@@@@@@@@@@@OOOOOOOOOOOOO+++",
"OOOOO+++++++++++++             XXXXXXXXXXXXXooooooooooooo.............@@@@@@@@@@@@@OOOOOOOOOOOOO++++",
"OOOO+++++++++++++             XXXXXXXXXXXXXooooooooooooo.............@@@@@@@@@@@@@OOOOOOOOOOOOO+++++",
"OOO+++++++++++++             XXXXXXXXXXXXXooooooooooooo.............@@@@@@@@@@@@@OOOOOOOOOOOOO++++++",
"OO+++++++++++++             XXXXXXXXXXXXXooooooooooooo.............@@@@@@@@@@@@@OOOOOOOOOOOOO+++++++",
"O+++++++++++++             XXXXXXXXXXXXXooooooooooooo.............@@@@@@@@@@@@@OOOOOOOOOOOOO++++++++",
"+++++++++++++             XXXXXXXXXXXXXooooooooooooo.............@@@@@@@@@@@@@OOOOOOOOOOOOO+++++++++",
"++++++++++++             XXXXXXXXXXXXXooooooooooooo.............@@@@@@@@@@@@@OOOOOOOOOOOOO++++++++++",
"+++++++++++             XXXXXXXXXXXXXooooooooooooo.............@@@@@@@@@@@@@OOOOOOOOOOOOO+++++++++++",
"++++++++++             XXXXXXXXXXXXXooooooooooooo.............@@@@@@@@@@@@@OOOOOOOOOOOOO++++++++++++",
"+++++++++             XXXXXXXXXXXXXooooooooooooo.............@@@@@@@@@@@@@OOOOOOOOOOOOO+++++++++++++",
"++++++++             XXXXXXXXXXXXXooooooooooooo.............@@@@@@@@@@@@@OOOOOOOOOOOOO+++++++++++++ ",
"+++++++             XXXXXXXXXXXXXooooooooooooo.............@@@@@@@@@@@@@OOOOOOOOOOOOO+++++++++++++  ",
"++++++             XXXXXXXXXXXXXooooooooooooo.............@@@@@@@@@@@@@OOOOOOOOOOOOO+++++++++++++   ",
"+++++             XXXXXXXXXXXXXooooooooooooo.............@@@@@@@@@@@@@OOOOOOOOOOOOO+++++++++++++    ",
"++++             XXXXXXXXXXXXXooooooooooooo.............@@@@@@@@@@@@@OOOOOOOOOOOOO+++++++++++++     ",
"+++             XXXXXXXXXXXXXooooooooooooo.............@@@@@@@@@@@@@OOOOOOOOOOOOO+++++++++++++      ",
"++             XXXXXXXXXXXXXooooooooooooo.............@@@@@@@@@@@@@OOOOOOOOOOOOO+++++++++++++       ",
"+             XXXXXXXXXXXXXooooooooooooo.............@@@@@@@@@@@@@OOOOOOOOOOOOO+++++++++++++        ",
"             XXXXXXXXXXXXXooooooooooooo.............@@@@@@@@@@@@@OOOOOOOOOOOOO+++++++++++++         ",
"            XXXXXXXXXXXXXooooooooooooo.............@@@@@@@@@@@@@OOOOOOOOOOOOO+++++++++++++          ",
"           XXXXXXXXXXXXXooooooooooooo.............@@@@@@@@@@@@@OOOOOOOOOOOOO+++++++++++++           ",
"          XXXXXXXXXXXXXooooooooooooo.............@@@@@@@@@@@@@OOOOOOOOOOOOO+++++++++++++            ",
"         XXXXXXXXXXXXXooooooooooooo.............@@@@@@@@@@@@@OOOOOOOOOOOOO+++++++++++++             ",
"        XXXXXXXXXXXXXooooooooooooo.............@@@@@@@@@@@@@OOOOOOOOOOOOO+++++++++++++             X",
"       XXXXXXXXXXXXXooooooooooooo.............@@@@@@@@@@@@@OOOOOOOOOOOOO+++++++++++++             XX",
"      XXXXXXXXXXXXXooooooooooooo.............@@@@@@@@@@@@@OOOOOOOOOOOOO+++++++++++++             XXX",
"     XXXXXXXXXXXXXooooooooooooo.............@@@@@@@@@@@@@OOOOOOOOOOOOO+++++++++++++             XXXX"
};
